# Blender v2.81 (sub 16) OBJ File: 'foerderband_test_1.blend'
# www.blender.org
mtllib foerderband_4_ghost.mtl
o Cube.015
v -25.616863 -6.501914 -15.258172
v -25.503775 -7.152153 -15.258172
v -9.467875 -3.693298 -18.025360
v -9.354786 -4.343537 -18.025360
v -25.511969 -6.483671 -11.396026
v -25.398880 -7.133910 -11.396026
v -9.361298 -3.674762 -9.022785
v -9.248209 -4.325001 -9.022785
vt 0.625000 0.500000
vt 0.875000 0.500000
vt 0.875000 0.750000
vt 0.625000 0.750000
vt 0.375000 0.750000
vt 0.625000 1.000000
vt 0.375000 1.000000
vt 0.375000 0.000000
vt 0.625000 0.000000
vt 0.625000 0.250000
vt 0.375000 0.250000
vt 0.125000 0.500000
vt 0.375000 0.500000
vt 0.125000 0.750000
vn -0.1713 0.9852 -0.0000
vn 0.9851 0.1713 -0.0120
vn -0.1412 -0.0246 0.9897
vn 0.1713 -0.9852 -0.0000
vn -0.1640 -0.0285 -0.9860
vn -0.9848 -0.1713 0.0276
usemtl Material.001
s off
f 1/1/1 5/2/1 7/3/1 3/4/1
f 4/5/2 3/4/2 7/6/2 8/7/2
f 8/8/3 7/9/3 5/10/3 6/11/3
f 6/12/4 2/13/4 4/5/4 8/14/4
f 2/13/5 1/1/5 3/4/5 4/5/5
f 6/11/6 5/10/6 1/1/6 2/13/6
