# Blender v2.83.1 OBJ File: 'foerderband_test_1.blend'
# www.blender.org
mtllib foerderband_4_ghost_origin.mtl
o Cube.015
v -8.180604 -0.633904 -1.838959
v -8.067515 -1.284144 -1.838959
v 7.968385 2.174711 -4.606147
v 8.081473 1.524472 -4.606147
v -8.075709 -0.615661 2.023187
v -7.962621 -1.265900 2.023187
v 8.074962 2.193247 4.396427
v 8.188050 1.543008 4.396427
vt 0.625000 0.500000
vt 0.875000 0.500000
vt 0.875000 0.750000
vt 0.625000 0.750000
vt 0.375000 0.750000
vt 0.625000 1.000000
vt 0.375000 1.000000
vt 0.375000 0.000000
vt 0.625000 0.000000
vt 0.625000 0.250000
vt 0.375000 0.250000
vt 0.125000 0.500000
vt 0.375000 0.500000
vt 0.125000 0.750000
vn -0.1713 0.9852 -0.0000
vn 0.9851 0.1713 -0.0120
vn -0.1412 -0.0245 0.9897
vn 0.1713 -0.9852 0.0000
vn -0.1640 -0.0285 -0.9860
vn -0.9848 -0.1713 0.0276
usemtl Material.001
s off
f 1/1/1 5/2/1 7/3/1 3/4/1
f 4/5/2 3/4/2 7/6/2 8/7/2
f 8/8/3 7/9/3 5/10/3 6/11/3
f 6/12/4 2/13/4 4/5/4 8/14/4
f 2/13/5 1/1/5 3/4/5 4/5/5
f 6/11/6 5/10/6 1/1/6 2/13/6
