# Blender v2.81 (sub 16) OBJ File: 'foerderband_test_1.blend'
# www.blender.org
mtllib foerderband_1_ghost.mtl
o Cube.012_Cube.011
v 15.866934 5.373924 7.367835
v 15.866934 4.742539 7.560067
v 15.866934 10.148683 23.050455
v 15.866934 9.517298 23.242687
v 7.112772 5.373924 7.367835
v 7.112772 4.742539 7.560067
v 7.112772 10.148683 23.050455
v 7.112772 9.517298 23.242687
vt 0.625000 0.500000
vt 0.875000 0.500000
vt 0.875000 0.750000
vt 0.625000 0.750000
vt 0.375000 0.750000
vt 0.625000 1.000000
vt 0.375000 1.000000
vt 0.375000 0.000000
vt 0.625000 0.000000
vt 0.625000 0.250000
vt 0.375000 0.250000
vt 0.125000 0.500000
vt 0.375000 0.500000
vt 0.125000 0.750000
vn 0.0000 0.9566 -0.2913
vn 0.0000 0.2913 0.9566
vn -1.0000 -0.0000 0.0000
vn 0.0000 -0.9566 0.2913
vn 1.0000 0.0000 0.0000
vn 0.0000 -0.2913 -0.9566
usemtl Material.001
s off
f 1/1/1 5/2/1 7/3/1 3/4/1
f 4/5/2 3/4/2 7/6/2 8/7/2
f 8/8/3 7/9/3 5/10/3 6/11/3
f 6/12/4 2/13/4 4/5/4 8/14/4
f 2/13/5 1/1/5 3/4/5 4/5/5
f 6/11/6 5/10/6 1/1/6 2/13/6
