# Blender v2.81 (sub 16) OBJ File: 'foerderband_test_1.blend'
# www.blender.org
mtllib foerderband_4.mtl
o Cube.009
v -25.578053 -7.178473 -15.258172
v -25.542591 -7.382365 -15.258172
v -9.429059 -4.369856 -18.025360
v -9.393598 -4.573749 -18.025360
v -25.473156 -7.160229 -11.396026
v -25.437695 -7.364122 -11.396026
v -9.322482 -4.351320 -9.022785
v -9.287021 -4.555212 -9.022785
vt 0.625000 0.500000
vt 0.875000 0.500000
vt 0.875000 0.750000
vt 0.625000 0.750000
vt 0.375000 0.750000
vt 0.625000 1.000000
vt 0.375000 1.000000
vt 0.375000 0.000000
vt 0.625000 0.000000
vt 0.625000 0.250000
vt 0.375000 0.250000
vt 0.125000 0.500000
vt 0.375000 0.500000
vt 0.125000 0.750000
vn -0.1713 0.9852 -0.0000
vn 0.9851 0.1713 -0.0120
vn -0.1412 -0.0246 0.9897
vn 0.1713 -0.9852 0.0000
vn -0.1640 -0.0285 -0.9860
vn -0.9848 -0.1713 0.0276
usemtl Material
s off
f 1/1/1 5/2/1 7/3/1 3/4/1
f 4/5/2 3/4/2 7/6/2 8/7/2
f 8/8/3 7/9/3 5/10/3 6/11/3
f 6/12/4 2/13/4 4/5/4 8/14/4
f 2/13/5 1/1/5 3/4/5 4/5/5
f 6/11/6 5/10/6 1/1/6 2/13/6
o Cube.010
v -9.292986 -5.137195 -8.381534
v -9.913703 -1.523712 -8.479836
v -25.329655 -7.955591 -10.721128
v -25.950371 -4.342109 -10.819430
v -9.191634 -5.138637 -9.074508
v -9.812351 -1.525154 -9.172810
v -25.228302 -7.957033 -11.414103
v -25.849020 -4.343551 -11.512404
vt 0.375000 0.000000
vt 0.625000 0.000000
vt 0.625000 0.250000
vt 0.375000 0.250000
vt 0.625000 0.500000
vt 0.375000 0.500000
vt 0.625000 0.750000
vt 0.375000 0.750000
vt 0.625000 1.000000
vt 0.375000 1.000000
vt 0.125000 0.500000
vt 0.125000 0.750000
vt 0.875000 0.500000
vt 0.875000 0.750000
vn -0.1447 0.0021 0.9895
vn -0.9749 -0.1713 -0.1422
vn 0.1447 -0.0021 -0.9895
vn 0.9749 0.1713 0.1422
vn 0.1692 -0.9852 0.0268
vn -0.1692 0.9852 -0.0268
usemtl None
s off
f 9/15/7 10/16/7 12/17/7 11/18/7
f 11/18/8 12/17/8 16/19/8 15/20/8
f 15/20/9 16/19/9 14/21/9 13/22/9
f 13/22/10 14/21/10 10/23/10 9/24/10
f 11/25/11 15/20/11 13/22/11 9/26/11
f 16/19/12 12/27/12 10/28/12 14/21/12
o Cube.011_Cube.012
v -9.333448 -5.166540 -18.708338
v -9.954090 -1.551947 -18.666777
v -25.306175 -7.941168 -15.921726
v -25.926819 -4.326575 -15.880165
v -9.215188 -5.154170 -18.018158
v -9.835830 -1.539577 -17.976597
v -25.187916 -7.928798 -15.231546
v -25.808558 -4.314205 -15.189985
vt 0.375000 0.000000
vt 0.375000 0.250000
vt 0.625000 0.250000
vt 0.625000 0.000000
vt 0.375000 0.500000
vt 0.625000 0.500000
vt 0.375000 0.750000
vt 0.625000 0.750000
vt 0.375000 1.000000
vt 0.625000 1.000000
vt 0.125000 0.500000
vt 0.125000 0.750000
vt 0.875000 0.750000
vt 0.875000 0.500000
vn -0.1689 -0.0177 -0.9855
vn -0.9710 -0.1687 0.1694
vn 0.1689 0.0177 0.9855
vn 0.9710 0.1687 -0.1694
vn 0.1692 -0.9855 -0.0113
vn -0.1692 0.9855 0.0113
usemtl None
s off
f 17/29/13 19/30/13 20/31/13 18/32/13
f 19/30/14 23/33/14 24/34/14 20/31/14
f 23/33/15 21/35/15 22/36/15 24/34/15
f 21/35/16 17/37/16 18/38/16 22/36/16
f 19/39/17 17/40/17 21/35/17 23/33/17
f 24/34/18 22/36/18 18/41/18 20/42/18
o Cube.015
v -25.616863 -6.501914 -15.258172
v -25.503775 -7.152153 -15.258172
v -9.467875 -3.693298 -18.025360
v -9.354786 -4.343537 -18.025360
v -25.511969 -6.483671 -11.396026
v -25.398880 -7.133910 -11.396026
v -9.361298 -3.674762 -9.022785
v -9.248209 -4.325001 -9.022785
vt 0.625000 0.500000
vt 0.875000 0.500000
vt 0.875000 0.750000
vt 0.625000 0.750000
vt 0.375000 0.750000
vt 0.625000 1.000000
vt 0.375000 1.000000
vt 0.375000 0.000000
vt 0.625000 0.000000
vt 0.625000 0.250000
vt 0.375000 0.250000
vt 0.125000 0.500000
vt 0.375000 0.500000
vt 0.125000 0.750000
vn -0.1713 0.9852 -0.0000
vn 0.9851 0.1713 -0.0120
vn -0.1412 -0.0246 0.9897
vn 0.1713 -0.9852 -0.0000
vn -0.1640 -0.0285 -0.9860
vn -0.9848 -0.1713 0.0276
usemtl Material.001
s off
f 25/43/19 29/44/19 31/45/19 27/46/19
f 28/47/20 27/46/20 31/48/20 32/49/20
f 32/50/21 31/51/21 29/52/21 30/53/21
f 30/54/22 26/55/22 28/47/22 32/56/22
f 26/55/23 25/43/23 27/46/23 28/47/23
f 30/53/24 29/52/24 25/43/24 26/55/24
