# Blender v2.81 (sub 16) OBJ File: 'foerderband_test_1.blend'
# www.blender.org
mtllib foerderband_2.mtl
o Cube.003
v 16.181900 0.103477 -17.808441
v 16.181900 -0.103477 -17.808441
v 16.181900 0.103477 8.196691
v 16.181900 -0.103477 8.196691
v 7.427740 0.103477 -9.001763
v 7.425085 -0.103477 -9.004244
v 7.427740 0.103477 8.196691
v 7.427740 -0.103477 8.196691
vt 0.625000 0.500000
vt 0.875000 0.500000
vt 0.875000 0.750000
vt 0.625000 0.750000
vt 0.375000 0.750000
vt 0.625000 1.000000
vt 0.375000 1.000000
vt 0.375000 0.000000
vt 0.625000 0.000000
vt 0.625000 0.250000
vt 0.375000 0.250000
vt 0.125000 0.500000
vt 0.375000 0.500000
vt 0.125000 0.750000
vn 0.0000 1.0000 0.0000
vn 0.0000 0.0000 1.0000
vn -1.0000 0.0064 0.0001
vn 0.0000 -1.0000 0.0000
vn 1.0000 0.0000 0.0000
vn -0.7091 0.0088 -0.7051
usemtl Material
s off
f 1/1/1 5/2/1 7/3/1 3/4/1
f 4/5/2 3/4/2 7/6/2 8/7/2
f 8/8/3 7/9/3 5/10/3 6/11/3
f 6/12/4 2/13/4 4/5/4 8/14/4
f 2/13/5 1/1/5 3/4/5 4/5/5
f 6/11/6 5/10/6 1/1/6 2/13/6
o Cube.004
v 6.760057 -0.700327 9.034965
v 6.760057 2.967399 9.034965
v 6.760057 -0.700327 -9.034965
v 6.760057 2.967399 -9.034965
v 7.460405 -0.700327 9.034965
v 7.460405 2.967399 9.034965
v 7.460405 -0.700327 -9.034965
v 7.460405 2.967399 -9.034965
vt 0.375000 0.000000
vt 0.625000 0.000000
vt 0.625000 0.250000
vt 0.375000 0.250000
vt 0.625000 0.500000
vt 0.375000 0.500000
vt 0.625000 0.750000
vt 0.375000 0.750000
vt 0.625000 1.000000
vt 0.375000 1.000000
vt 0.125000 0.500000
vt 0.125000 0.750000
vt 0.875000 0.500000
vt 0.875000 0.750000
vn -1.0000 0.0000 0.0000
vn 0.0000 0.0000 -1.0000
vn 1.0000 0.0000 0.0000
vn 0.0000 0.0000 1.0000
vn 0.0000 -1.0000 0.0000
vn 0.0000 1.0000 0.0000
usemtl None
s off
f 9/15/7 10/16/7 12/17/7 11/18/7
f 11/18/8 12/17/8 16/19/8 15/20/8
f 15/20/9 16/19/9 14/21/9 13/22/9
f 13/22/10 14/21/10 10/23/10 9/24/10
f 11/25/11 15/20/11 13/22/11 9/26/11
f 16/19/12 12/27/12 10/28/12 14/21/12
o Cube.005
v 16.165140 -0.701169 8.675996
v 16.165140 2.966556 8.675996
v 16.165140 -0.701169 -18.668709
v 16.165140 2.966556 -18.668709
v 16.865488 -0.701169 8.675996
v 16.865488 2.966556 8.675996
v 16.865488 -0.701169 -18.668709
v 16.865488 2.966556 -18.668709
v 16.165140 -0.701169 8.675996
v 16.165140 2.966556 8.675996
v 16.865488 -0.701169 8.675996
v 16.865488 2.966556 8.675996
vt 0.375000 0.000000
vt 0.625000 0.000000
vt 0.625000 0.250000
vt 0.375000 0.250000
vt 0.625000 0.500000
vt 0.375000 0.500000
vt 0.625000 0.750000
vt 0.375000 0.750000
vt 0.625000 1.000000
vt 0.375000 1.000000
vt 0.125000 0.500000
vt 0.125000 0.750000
vt 0.875000 0.500000
vt 0.875000 0.750000
vt 0.375000 0.750000
vt 0.625000 0.750000
vt 0.625000 1.000000
vt 0.375000 1.000000
vn -1.0000 0.0000 0.0000
vn 0.0000 0.0000 -1.0000
vn 1.0000 0.0000 0.0000
vn 0.0000 0.0000 1.0000
vn 0.0000 -1.0000 0.0000
vn 0.0000 1.0000 0.0000
usemtl None
s off
f 17/29/13 18/30/13 20/31/13 19/32/13
f 19/32/14 20/31/14 24/33/14 23/34/14
f 23/34/15 24/33/15 22/35/15 21/36/15
f 21/36/16 22/35/16 18/37/16 17/38/16
f 19/39/17 23/34/17 21/36/17 17/40/17
f 24/33/18 20/41/18 18/42/18 22/35/18
f 27/43/16 28/44/16 26/45/16 25/46/16
o Cube.012_Cube.011
v 15.866934 5.373924 7.367835
v 15.866934 4.742539 7.560067
v 15.866934 10.148683 23.050455
v 15.866934 9.517298 23.242687
v 7.112772 5.373924 7.367835
v 7.112772 4.742539 7.560067
v 7.112772 10.148683 23.050455
v 7.112772 9.517298 23.242687
vt 0.625000 0.500000
vt 0.875000 0.500000
vt 0.875000 0.750000
vt 0.625000 0.750000
vt 0.375000 0.750000
vt 0.625000 1.000000
vt 0.375000 1.000000
vt 0.375000 0.000000
vt 0.625000 0.000000
vt 0.625000 0.250000
vt 0.375000 0.250000
vt 0.125000 0.500000
vt 0.375000 0.500000
vt 0.125000 0.750000
vn 0.0000 0.9566 -0.2913
vn 0.0000 0.2913 0.9566
vn -1.0000 -0.0000 0.0000
vn 0.0000 -0.9566 0.2913
vn 1.0000 0.0000 0.0000
vn 0.0000 -0.2913 -0.9566
usemtl Material.001
s off
f 29/47/19 33/48/19 35/49/19 31/50/19
f 32/51/20 31/50/20 35/52/20 36/53/20
f 36/54/21 35/55/21 33/56/21 34/57/21
f 34/58/22 30/59/22 32/51/22 36/60/22
f 30/59/23 29/47/23 31/50/23 32/51/23
f 34/57/24 33/56/24 29/47/24 30/59/24
o Cube.013
v 16.181900 0.824888 -17.808441
v 16.181900 0.127479 -17.808441
v 16.181900 0.824888 8.196691
v 16.181900 0.127479 8.196691
v 7.427740 0.824888 -9.001763
v 7.425085 0.127479 -9.004244
v 7.427740 0.824888 8.196691
v 7.427740 0.127479 8.196691
vt 0.625000 0.500000
vt 0.875000 0.500000
vt 0.875000 0.750000
vt 0.625000 0.750000
vt 0.375000 0.750000
vt 0.625000 1.000000
vt 0.375000 1.000000
vt 0.375000 0.000000
vt 0.625000 0.000000
vt 0.625000 0.250000
vt 0.375000 0.250000
vt 0.125000 0.500000
vt 0.375000 0.500000
vt 0.125000 0.750000
vn 0.0000 1.0000 0.0000
vn 0.0000 0.0000 1.0000
vn -1.0000 0.0019 0.0001
vn 0.0000 -1.0000 0.0000
vn 1.0000 0.0000 0.0000
vn -0.7091 0.0026 -0.7051
usemtl Material.001
s off
f 37/61/25 41/62/25 43/63/25 39/64/25
f 40/65/26 39/64/26 43/66/26 44/67/26
f 44/68/27 43/69/27 41/70/27 42/71/27
f 42/72/28 38/73/28 40/65/28 44/74/28
f 38/73/29 37/61/29 39/64/29 40/65/29
f 42/71/30 41/70/30 37/61/30 38/73/30
