# Blender v2.83.1 OBJ File: 'foerderband_test_1.blend'
# www.blender.org
mtllib foerderband_4_origin.mtl
o Cube.009
v -8.145095 -1.311557 -1.832586
v -8.109633 -1.515449 -1.832586
v 8.003898 1.497060 -4.599775
v 8.039359 1.293167 -4.599775
v -8.040200 -1.293314 2.029560
v -8.004739 -1.497206 2.029560
v 8.110475 1.515596 4.402801
v 8.145936 1.311703 4.402801
vt 0.625000 0.500000
vt 0.875000 0.500000
vt 0.875000 0.750000
vt 0.625000 0.750000
vt 0.375000 0.750000
vt 0.625000 1.000000
vt 0.375000 1.000000
vt 0.375000 0.000000
vt 0.625000 0.000000
vt 0.625000 0.250000
vt 0.375000 0.250000
vt 0.125000 0.500000
vt 0.375000 0.500000
vt 0.125000 0.750000
vn -0.1713 0.9852 0.0000
vn 0.9851 0.1713 -0.0120
vn -0.1412 -0.0246 0.9897
vn 0.1713 -0.9852 0.0000
vn -0.1640 -0.0285 -0.9860
vn -0.9848 -0.1713 0.0276
usemtl Material
s off
f 1/1/1 5/2/1 7/3/1 3/4/1
f 4/5/2 3/4/2 7/6/2 8/7/2
f 8/8/3 7/9/3 5/10/3 6/11/3
f 6/12/4 2/13/4 4/5/4 8/14/4
f 2/13/5 1/1/5 3/4/5 4/5/5
f 6/11/6 5/10/6 1/1/6 2/13/6
o Cube.010
v 8.143273 0.730815 5.037679
v 7.522556 4.344297 4.939376
v -7.893394 -2.087582 2.698084
v -8.514112 1.525901 2.599782
v 8.244625 0.729373 4.344705
v 7.623908 4.342855 4.246402
v -7.792044 -2.089024 2.005110
v -8.412761 1.524459 1.906808
vt 0.375000 0.000000
vt 0.625000 0.000000
vt 0.625000 0.250000
vt 0.375000 0.250000
vt 0.625000 0.500000
vt 0.375000 0.500000
vt 0.625000 0.750000
vt 0.375000 0.750000
vt 0.625000 1.000000
vt 0.375000 1.000000
vt 0.125000 0.500000
vt 0.125000 0.750000
vt 0.875000 0.500000
vt 0.875000 0.750000
vn -0.1447 0.0021 0.9895
vn -0.9749 -0.1713 -0.1422
vn 0.1447 -0.0021 -0.9895
vn 0.9749 0.1713 0.1422
vn 0.1692 -0.9852 0.0268
vn -0.1692 0.9852 -0.0268
usemtl None
s off
f 9/15/7 10/16/7 12/17/7 11/18/7
f 11/18/8 12/17/8 16/19/8 15/20/8
f 15/20/9 16/19/9 14/21/9 13/22/9
f 13/22/10 14/21/10 10/23/10 9/24/10
f 11/25/11 15/20/11 13/22/11 9/26/11
f 16/19/12 12/27/12 10/28/12 14/21/12
o Cube.011_Cube.012
v 8.102811 0.701469 -5.289126
v 7.482169 4.316062 -5.247565
v -7.869917 -2.073159 -2.502514
v -8.490559 1.541434 -2.460953
v 8.221071 0.713839 -4.598946
v 7.600430 4.328433 -4.557384
v -7.751657 -2.060789 -1.812334
v -8.372298 1.553805 -1.770773
vt 0.375000 0.000000
vt 0.375000 0.250000
vt 0.625000 0.250000
vt 0.625000 0.000000
vt 0.375000 0.500000
vt 0.625000 0.500000
vt 0.375000 0.750000
vt 0.625000 0.750000
vt 0.375000 1.000000
vt 0.625000 1.000000
vt 0.125000 0.500000
vt 0.125000 0.750000
vt 0.875000 0.750000
vt 0.875000 0.500000
vn -0.1689 -0.0177 -0.9855
vn -0.9710 -0.1687 0.1694
vn 0.1689 0.0177 0.9855
vn 0.9710 0.1687 -0.1694
vn 0.1692 -0.9855 -0.0113
vn -0.1692 0.9855 0.0113
usemtl None
s off
f 17/29/13 19/30/13 20/31/13 18/32/13
f 19/30/14 23/33/14 24/34/14 20/31/14
f 23/33/15 21/35/15 22/36/15 24/34/15
f 21/35/16 17/37/16 18/38/16 22/36/16
f 19/39/17 17/40/17 21/35/17 23/33/17
f 24/34/18 22/36/18 18/41/18 20/42/18
